# xmcd CD database file
#
# Track frame offsets:
#	150
#	27375
#	55650
#	98775
#	126900
#	156525
#	181050
#	209025
#	235575
#	267300
#	302850
#
# Disc length: 4337 seconds
#
# Revision: 0
# Processed by: cddbd v1.5PL3 Copyright (c) Steve Scherf et al.
# Submitted via: CDex 1.51
#
DISCID=9910ef0b
DTITLE=小國雅香 - Dia,Dias
DYEAR=2003
DGENRE=Jazz
TTITLE0=La Siesta
TTITLE1=Carua and Coco
TTITLE2=Dark Flamingo
TTITLE3=春夜灯影
TTITLE4=Start On Journey
TTITLE5=Manhattan AM5:00
TTITLE6=根の国
TTITLE7=Strolling "T"
TTITLE8=You Are Everything To Me
TTITLE9=Flamingo Of Blue
TTITLE10=春節祭
EXTD=YEAR: 2003
EXTT0=
EXTT1=
EXTT2=
EXTT3=
EXTT4=
EXTT5=
EXTT6=
EXTT7=
EXTT8=
EXTT9=
EXTT10=
PLAYORDER=
